<svg xmlns="http://www.w3.org/2000/svg" width="1200" height="630"><rect x="0" y="0" width="1200" height="630" fill="white" /><rect x="232" y="280" width="110" height="110" fill="#6aaa64" /><text x="287.0" y="359.2" fill="white" style="font-size:72px;font-family:Arial;font-weight:bold" text-anchor="middle">W</text><rect x="357" y="280" width="110" height="110" fill="#6aaa64" /><text x="412.0" y="359.2" fill="white" style="font-size:72px;font-family:Arial;font-weight:bold" text-anchor="middle">O</text><rect x="482" y="280" width="110" height="110" fill="#6aaa64" /><text x="537.0" y="359.2" fill="white" style="font-size:72px;font-family:Arial;font-weight:bold" text-anchor="middle">R</text><rect x="607" y="280" width="110" height="110" fill="#6aaa64" /><text x="662.0" y="359.2" fill="white" style="font-size:72px;font-family:Arial;font-weight:bold" text-anchor="middle">D</text><rect x="732" y="280" width="110" height="110" fill="#6aaa64" /><text x="787.0" y="359.2" fill="white" style="font-size:72px;font-family:Arial;font-weight:bold" text-anchor="middle">L</text><rect x="857" y="280" width="110" height="110" fill="#6aaa64" /><text x="912.0" y="359.2" fill="white" style="font-size:72px;font-family:Arial;font-weight:bold" text-anchor="middle">E</text><rect x="357" y="140" width="110" height="110" fill="#c9b458" /><text x="412.0" y="219.2" fill="white" style="font-size:72px;font-family:Arial;font-weight:bold" text-anchor="middle">L</text><rect x="482" y="140" width="110" height="110" fill="#c9b458" /><text x="537.0" y="219.2" fill="white" style="font-size:72px;font-family:Arial;font-weight:bold" text-anchor="middle">E</text><rect x="607" y="140" width="110" height="110" fill="#c9b458" /><text x="662.0" y="219.2" fill="white" style="font-size:72px;font-family:Arial;font-weight:bold" text-anchor="middle">F</text><rect x="732" y="140" width="110" height="110" fill="#c9b458" /><text x="787.0" y="219.2" fill="white" style="font-size:72px;font-family:Arial;font-weight:bold" text-anchor="middle">T</text><text x="600.0" y="460" fill="#333333" style="font-size:42px;font-family:Arial;font-weight:bold" text-anchor="middle">A WORDLE ALTERNATIVE</text></svg>